# xmcd
#
# Track frame offsets:
#	150
#	25935
#	60521
#	87974
#	105434
#	127536
#	146891
#	163150
#	189178
#	231463
#
# Disc length: 3416 seconds
#
# Revision: 0
# Processed by: cddbd v1.5.2PL0 Copyright (c) Steve Scherf et al.
# Submitted via: EZCDAudioConverter 1.3.4.1
#
DISCID=7b0d560a
DTITLE=Jamiroquai - Travelling Without Moving 2/2
DYEAR=1900
DGENRE=
TTITLE0=Virtual Insanity [Salaam Remi Mix]
TTITLE1=Cosmic Girl [Quasar Mix]
TTITLE2=Alright [Alan Braxe and Fred Falke Remix]
TTITLE3=High Times [Sanchez Radio Edit]
TTITLE4=Do You Know Where You're Coming From [Full Horns Mix]
TTITLE5=Bullet
TTITLE6=Slippin' N' Slidin'
TTITLE7=Hollywood Swinging
TTITLE8=Alright [Live At The Verona Amphitheatre]
TTITLE9=Virtual Insanity [Live At The Verona Amphitheatre]
EXTD=
EXTT0=
EXTT1=
EXTT2=
EXTT3=
EXTT4=
EXTT5=
EXTT6=
EXTT7=
EXTT8=
EXTT9=
PLAYORDER=
